#N canvas 2047 86 751 703 12;
#N canvas 2791 21 929 849 random_chord 0;
#X obj 183 185 random 12;
#X obj 345 164 random 9;
#X obj 629 158 random 2;
#X obj 491 283 moses 4;
#X obj 689 317 moses 4;
#X obj 530 303 moses 8;
#X obj 308 264 moses 2;
#X obj 346 292 moses 5;
#X msg 728 339 3;
#X msg 689 339 4;
#X msg 491 326 3;
#X msg 529 326 4;
#X msg 307 318 3;
#X msg 346 318 4;
#X obj 213 222 + 12;
#X obj 233 377 +;
#X obj 397 393 +;
#X obj 588 409 +;
#X obj 233 412 % 12;
#X obj 398 421 % 12;
#X obj 588 434 % 12;
#X floatatom 233 433 5 0 0 0 - - -;
#X floatatom 398 442 5 0 0 0 - - -;
#X floatatom 588 455 5 0 0 0 - - -;
#X floatatom 108 433 5 0 0 0 - - -;
#X obj 326 122 t b b b;
#X obj 656 183 moses 1;
#X msg 629 207 -1;
#X obj 307 361 *;
#X obj 689 395 *;
#X obj 491 365 *;
#X obj 331 11 inlet;
#X obj 331 41 until;
#X obj 331 70 f;
#X obj 366 71 + 1;
#X obj 399 62 sel 0;
#X obj 118 481 tabwrite p1;
#X obj 243 481 tabwrite p2;
#X obj 408 490 tabwrite p3;
#X obj 598 503 tabwrite p4;
#X obj 217 13 loadbang;
#X obj 399 36 % 5;
#X obj 43 734 table p2 4;
#X obj 43 755 table p3 4;
#X obj 43 775 table p4 4;
#X obj 699 118 tabwrite c1;
#X obj 43 795 table c1 4;
#X obj 43 815 table c2 4;
#X obj 453 196 tabwrite c2;
#X msg 722 573 \; p1 bounds 0 12 3 0;
#X msg 722 618 \; p2 bounds 0 12 3 0;
#X msg 722 663 \; p3 bounds 0 12 3 0;
#X msg 722 706 \; p4 bounds 0 12 3 0;
#X obj 43 712 table p1 4;
#X connect 0 0 14 0;
#X connect 0 0 24 0;
#X connect 1 0 3 0;
#X connect 1 0 4 0;
#X connect 1 0 6 0;
#X connect 1 0 48 0;
#X connect 2 0 26 0;
#X connect 2 0 45 0;
#X connect 3 0 10 0;
#X connect 3 1 5 0;
#X connect 4 0 9 0;
#X connect 4 1 8 0;
#X connect 5 0 11 0;
#X connect 5 1 10 0;
#X connect 6 0 12 0;
#X connect 6 1 7 0;
#X connect 7 0 13 0;
#X connect 7 1 12 0;
#X connect 8 0 29 0;
#X connect 9 0 29 0;
#X connect 10 0 30 0;
#X connect 11 0 30 0;
#X connect 12 0 28 0;
#X connect 13 0 28 0;
#X connect 14 0 15 0;
#X connect 15 0 16 0;
#X connect 15 0 18 0;
#X connect 16 0 17 0;
#X connect 16 0 19 0;
#X connect 17 0 20 0;
#X connect 18 0 21 0;
#X connect 19 0 22 0;
#X connect 20 0 23 0;
#X connect 21 0 37 0;
#X connect 22 0 38 0;
#X connect 23 0 39 0;
#X connect 24 0 36 0;
#X connect 25 0 0 0;
#X connect 25 1 1 0;
#X connect 25 2 2 0;
#X connect 26 0 27 0;
#X connect 26 1 28 1;
#X connect 26 1 30 1;
#X connect 26 1 29 1;
#X connect 27 0 28 1;
#X connect 27 0 30 1;
#X connect 27 0 29 1;
#X connect 28 0 15 1;
#X connect 29 0 17 1;
#X connect 30 0 16 1;
#X connect 31 0 32 0;
#X connect 32 0 33 0;
#X connect 33 0 25 0;
#X connect 33 0 36 1;
#X connect 33 0 37 1;
#X connect 33 0 38 1;
#X connect 33 0 39 1;
#X connect 33 0 34 0;
#X connect 33 0 45 1;
#X connect 33 0 48 1;
#X connect 34 0 41 0;
#X connect 35 0 32 1;
#X connect 40 0 32 0;
#X connect 41 0 35 0;
#X connect 41 0 33 1;
#X coords 0 0 1 1 85 60 0;
#X restore 124 297 pd random_chord;
#X obj 124 241 bng 30 250 50 0 empty empty New_Chord_Set 0 -7 0 10
-262144 -1 -1;
#N canvas 323 424 1008 840 player 0;
#X obj 211 266 tabread p1;
#X obj 317 163 f;
#X obj 317 191 % 4;
#X obj 289 265 tabread p2;
#X obj 369 264 tabread p3;
#X obj 449 265 tabread p4;
#X obj 211 466 + 50;
#X obj 289 467 + 50;
#X obj 369 467 + 50;
#X obj 449 467 + 50;
#X obj 355 161 + 1;
#X obj 317 133 metro 1000;
#X obj 536 12 inlet;
#X msg 416 35 60000;
#X floatatom 199 221 5 0 0 0 - - -;
#X obj 285 33 loadbang;
#X obj 238 73 bng 15 250 50 0 empty empty empty 17 7 0 10 -262144 -1
-1;
#X obj 523 367 inlet;
#X obj 628 25 inlet;
#X obj 628 81 sel 0 1 2;
#X msg 584 120 1;
#X msg 624 138 2;
#X msg 665 157 4;
#X obj 416 100 *;
#X obj 628 46 t b f;
#X floatatom 153 344 5 0 0 0 - - -;
#X obj 416 56 / 120;
#X obj 533 433 s t_val;
#X floatatom 247 343 5 0 0 0 - - -;
#X floatatom 328 343 5 0 0 0 - - -;
#X floatatom 402 343 5 0 0 0 - - -;
#X obj 419 140 s tempo;
#X obj 211 490 s note1;
#X obj 289 491 s note2;
#X obj 369 491 s note3;
#X obj 449 491 s note4;
#X connect 0 0 6 0;
#X connect 0 0 25 0;
#X connect 1 0 10 0;
#X connect 1 0 2 0;
#X connect 2 0 0 0;
#X connect 2 0 3 0;
#X connect 2 0 4 0;
#X connect 2 0 5 0;
#X connect 2 0 14 0;
#X connect 3 0 7 0;
#X connect 3 0 28 0;
#X connect 4 0 8 0;
#X connect 4 0 29 0;
#X connect 5 0 9 0;
#X connect 5 0 30 0;
#X connect 6 0 32 0;
#X connect 7 0 33 0;
#X connect 8 0 34 0;
#X connect 9 0 35 0;
#X connect 10 0 1 1;
#X connect 11 0 1 0;
#X connect 12 0 13 0;
#X connect 12 0 26 1;
#X connect 13 0 26 0;
#X connect 15 0 11 0;
#X connect 16 0 11 0;
#X connect 17 0 9 1;
#X connect 17 0 8 1;
#X connect 17 0 7 1;
#X connect 17 0 6 1;
#X connect 17 0 27 0;
#X connect 18 0 24 0;
#X connect 19 0 20 0;
#X connect 19 1 21 0;
#X connect 19 2 22 0;
#X connect 20 0 23 1;
#X connect 21 0 23 1;
#X connect 22 0 23 1;
#X connect 23 0 11 1;
#X connect 23 0 31 0;
#X connect 24 0 13 0;
#X connect 24 1 19 0;
#X connect 26 0 23 0;
#X restore 487 246 pd player;
#X floatatom 512 214 5 0 0 0 - - -;
#X obj 417 55 vsl 30 128 30 80 0 1 empty empty Transpose 0 -9 0 10
-262144 -1 -1 5300 1;
#X obj 417 195 int;
#X floatatom 417 216 5 0 0 0 - - -;
#X obj 512 55 vsl 30 128 30 250 0 1 empty empty Tempo 0 -9 0 10 -262144
-1 -1 5200 1;
#X obj 512 191 int;
#X obj 574 78 vradio 30 1 1 3 empty empty Changes 0 -8 0 10 -262144
-1 -1 2;
#X text 611 85 Quarter Note;
#X text 610 113 Half Bar;
#X text 610 144 Whole Bar;
#N canvas 2640 160 1152 789 chord_name 0;
#X obj 514 173 tabread c1;
#X obj 514 199 moses 1;
#X obj 529 11 inlet;
#X obj 124 356 tabread c2;
#X obj 117 412 sel 0 1 2 3 4 5 6 7 8;
#X obj 834 356 tabread c2;
#X obj 827 412 sel 0 1 2 3 4 5 6 7 8;
#X msg 835 478 symbol aug7;
#X msg 881 518 symbol dim;
#X obj 460 442 sel 0 1 2 3 4 5 6 7 8 9 10 11;
#X msg 405 487 symbol C;
#X msg 425 507 symbol Db;
#X msg 445 527 symbol D;
#X msg 495 507 symbol E;
#X msg 515 527 symbol F;
#X msg 475 487 symbol Eb;
#X msg 557 487 symbol F#;
#X msg 577 507 symbol G;
#X msg 597 527 symbol Ab;
#X msg 637 487 symbol A;
#X msg 657 507 symbol Bb;
#X msg 677 527 symbol B;
#X msg 163 475 symbol min+7;
#X obj 435 364 tabread p4;
#X obj 435 386 + 0;
#X obj 435 405 % 12;
#X obj 585 386 + 0;
#X obj 585 405 % 12;
#X obj 585 364 tabread p1;
#X obj 545 622 pack s s;
#X obj 545 665 print chord;
#X obj 523 313 r t_val;
#X floatatom 523 336 5 0 0 0 - - -;
#X floatatom 672 358 5 0 0 0 - - -;
#X floatatom 666 423 5 0 0 0 - - -;
#X floatatom 949 384 5 0 0 0 - - -;
#X msg 529 41 4;
#X obj 529 68 until;
#X obj 594 68 + 1;
#X obj 380 246 t b b;
#X obj 638 249 t b b;
#X obj 439 18 loadbang;
#X msg 86 521 symbol dominant;
#X msg 123 497 symbol major7;
#X msg 220 453 symbol minor7;
#X msg 267 433 symbol dim;
#X msg 766 436 symbol halfdim7;
#X msg 808 457 symbol major7;
#X msg 859 498 symbol minor7;
#X obj 594 96 % 4;
#X obj 528 96 f 0;
#X obj 435 343 value index;
#X obj 585 343 value index;
#X obj 432 118 value index;
#X obj 135 323 value index;
#X obj 833 321 value index;
#X connect 0 0 1 0;
#X connect 1 0 39 0;
#X connect 1 1 40 0;
#X connect 2 0 36 0;
#X connect 3 0 4 0;
#X connect 4 0 42 0;
#X connect 4 1 42 0;
#X connect 4 2 43 0;
#X connect 4 3 43 0;
#X connect 4 4 22 0;
#X connect 4 5 44 0;
#X connect 4 6 44 0;
#X connect 4 7 44 0;
#X connect 4 8 45 0;
#X connect 5 0 6 0;
#X connect 5 0 35 0;
#X connect 6 0 46 0;
#X connect 6 1 46 0;
#X connect 6 2 47 0;
#X connect 6 3 47 0;
#X connect 6 4 7 0;
#X connect 6 5 48 0;
#X connect 6 6 48 0;
#X connect 6 7 48 0;
#X connect 6 8 8 0;
#X connect 7 0 29 1;
#X connect 8 0 29 1;
#X connect 9 0 10 0;
#X connect 9 1 11 0;
#X connect 9 2 12 0;
#X connect 9 3 15 0;
#X connect 9 4 13 0;
#X connect 9 5 14 0;
#X connect 9 6 16 0;
#X connect 9 7 17 0;
#X connect 9 8 18 0;
#X connect 9 9 19 0;
#X connect 9 10 20 0;
#X connect 9 11 21 0;
#X connect 10 0 29 0;
#X connect 11 0 29 0;
#X connect 12 0 29 0;
#X connect 13 0 29 0;
#X connect 14 0 29 0;
#X connect 15 0 29 0;
#X connect 16 0 29 0;
#X connect 17 0 29 0;
#X connect 18 0 29 0;
#X connect 19 0 29 0;
#X connect 20 0 29 0;
#X connect 21 0 29 0;
#X connect 22 0 29 1;
#X connect 23 0 24 0;
#X connect 24 0 25 0;
#X connect 25 0 9 0;
#X connect 26 0 27 0;
#X connect 27 0 9 0;
#X connect 27 0 34 0;
#X connect 28 0 26 0;
#X connect 29 0 30 0;
#X connect 31 0 32 0;
#X connect 32 0 24 1;
#X connect 32 0 26 1;
#X connect 36 0 37 0;
#X connect 37 0 50 0;
#X connect 38 0 49 0;
#X connect 39 0 51 0;
#X connect 39 1 54 0;
#X connect 40 0 52 0;
#X connect 40 1 55 0;
#X connect 41 0 36 0;
#X connect 42 0 29 1;
#X connect 43 0 29 1;
#X connect 44 0 29 1;
#X connect 45 0 29 1;
#X connect 46 0 29 1;
#X connect 47 0 29 1;
#X connect 48 0 29 1;
#X connect 49 0 50 1;
#X connect 50 0 38 0;
#X connect 50 0 0 0;
#X connect 50 0 53 0;
#X connect 51 0 23 0;
#X connect 52 0 28 0;
#X connect 52 0 33 0;
#X connect 54 0 3 0;
#X connect 55 0 5 0;
#X restore 16 333 pd chord_name;
#X obj 16 267 bng 30 250 50 0 empty empty Reprint_chords 0 -10 0 10
-262144 -1 -1;
#N canvas 351 127 978 716 selector 0;
#X obj 70 412 mtof~;
#X obj 70 433 osc~;
#X obj 187 624 dac~;
#X obj 148 412 mtof~;
#X obj 148 433 osc~;
#X obj 228 412 mtof~;
#X obj 228 435 osc~;
#X obj 308 412 mtof~;
#X obj 308 433 osc~;
#X obj 453 624 noteout;
#X obj 508 414 r tempo;
#X obj 573 624 noteout;
#X obj 628 414 r tempo;
#X obj 693 624 noteout;
#X obj 748 414 r tempo;
#X obj 813 624 noteout;
#X obj 868 414 r tempo;
#X obj 182 128 inlet;
#X obj 70 350 r note1;
#X obj 70 374 spigot;
#X obj 140 374 spigot;
#X obj 220 374 spigot;
#X obj 300 374 spigot;
#X obj 140 350 r note2;
#X obj 220 350 r note3;
#X obj 300 350 r note4;
#X obj 520 320 r note1;
#X obj 520 344 spigot;
#X obj 590 344 spigot;
#X obj 670 344 spigot;
#X obj 750 344 spigot;
#X obj 590 320 r note2;
#X obj 670 320 r note3;
#X obj 750 320 r note4;
#X obj 640 126 inlet;
#X msg 262 166 \; pd dsp \$1;
#X obj 186 478 inlet;
#X obj 697 478 inlet;
#X obj 574 557 makenote 0 500;
#X obj 454 557 makenote 0 500;
#X obj 694 557 makenote 0 500;
#X obj 814 557 makenote 0 500;
#X obj 72 525 *~ 0.01;
#X obj 148 525 *~ 0.01;
#X obj 228 527 *~ 0.01;
#X obj 308 525 *~ 0.01;
#X connect 0 0 1 0;
#X connect 1 0 42 0;
#X connect 3 0 4 0;
#X connect 4 0 43 0;
#X connect 5 0 6 0;
#X connect 6 0 44 0;
#X connect 7 0 8 0;
#X connect 8 0 45 0;
#X connect 10 0 39 2;
#X connect 12 0 38 2;
#X connect 14 0 40 2;
#X connect 16 0 41 2;
#X connect 17 0 19 1;
#X connect 17 0 20 1;
#X connect 17 0 21 1;
#X connect 17 0 22 1;
#X connect 17 0 35 0;
#X connect 18 0 19 0;
#X connect 19 0 0 0;
#X connect 20 0 3 0;
#X connect 21 0 5 0;
#X connect 22 0 7 0;
#X connect 23 0 20 0;
#X connect 24 0 21 0;
#X connect 25 0 22 0;
#X connect 26 0 27 0;
#X connect 27 0 39 0;
#X connect 28 0 38 0;
#X connect 29 0 40 0;
#X connect 30 0 41 0;
#X connect 31 0 28 0;
#X connect 32 0 29 0;
#X connect 33 0 30 0;
#X connect 34 0 27 1;
#X connect 34 0 28 1;
#X connect 34 0 29 1;
#X connect 34 0 30 1;
#X connect 36 0 42 1;
#X connect 36 0 43 1;
#X connect 36 0 44 1;
#X connect 36 0 45 1;
#X connect 37 0 38 1;
#X connect 37 0 39 1;
#X connect 37 0 40 1;
#X connect 37 0 41 1;
#X connect 38 0 11 0;
#X connect 38 1 11 1;
#X connect 39 0 9 0;
#X connect 39 1 9 1;
#X connect 40 0 13 0;
#X connect 40 1 13 1;
#X connect 41 0 15 0;
#X connect 41 1 15 1;
#X connect 42 0 2 0;
#X connect 42 0 2 1;
#X connect 43 0 2 0;
#X connect 43 0 2 1;
#X connect 44 0 2 1;
#X connect 44 0 2 0;
#X connect 45 0 2 1;
#X connect 45 0 2 0;
#X restore 377 505 pd selector;
#X obj 309 428 tgl 30 0 empty empty DSP 0 -10 0 10 -262144 -1 -1 0
1;
#X obj 435 428 tgl 30 0 empty empty MIDI 0 -10 0 10 -262144 -1 -1 0
1;
#X obj 383 353 vsl 30 128 0 0.2 0 1 empty empty DSP_Vol 0 -9 0 10 -262144
-1 -1 0 1;
#X obj 488 354 vsl 30 128 0 127 0 0 empty empty MIDI_vol 0 -9 0 10
-262144 -1 -1 0 1;
#X connect 1 0 0 0;
#X connect 1 0 13 0;
#X connect 3 0 2 1;
#X connect 4 0 5 0;
#X connect 5 0 6 0;
#X connect 6 0 2 0;
#X connect 7 0 8 0;
#X connect 8 0 3 0;
#X connect 9 0 2 2;
#X connect 14 0 13 0;
#X connect 16 0 15 0;
#X connect 17 0 15 2;
#X connect 18 0 15 1;
#X connect 19 0 15 3;
#X coords 0 703 1 702 85 60 0;
